<svg viewBox="0 0 320 200" xmlns="http://www.w3.org/2000/svg">
  <rect width="320" height="200" fill="#0a0e12"/>
  <rect x="24" y="20" width="272" height="160" fill="#060a0d" stroke="#1a2330"/>
  <rect x="24" y="20" width="272" height="30" fill="#101722"/>
  <rect x="44" y="10" width="10" height="20" rx="3" fill="#7dd3fc"/>
  <rect x="266" y="10" width="10" height="20" rx="3" fill="#7dd3fc"/>
  <g stroke="#1a2330">
    <line x1="40" y1="68" x2="280" y2="68"/>
    <line x1="40" y1="92" x2="280" y2="92"/>
    <line x1="40" y1="116" x2="280" y2="116"/>
    <line x1="40" y1="140" x2="280" y2="140"/>
    <line x1="80" y1="56" x2="80" y2="168"/>
    <line x1="120" y1="56" x2="120" y2="168"/>
    <line x1="160" y1="56" x2="160" y2="168"/>
    <line x1="200" y1="56" x2="200" y2="168"/>
    <line x1="240" y1="56" x2="240" y2="168"/>
  </g>
  <rect x="122" y="94" width="36" height="20" fill="#a3e635"/>
</svg>
