<svg viewBox="0 0 320 200" xmlns="http://www.w3.org/2000/svg">
  <rect width="320" height="200" fill="#0a0e12"/>
  <rect x="0" y="0" width="60" height="200" fill="#060a0d" stroke="#1a2330"/>
  <rect x="10" y="20" width="40" height="6" fill="#7dd3fc"/>
  <rect x="10" y="40" width="36" height="4" fill="#1a2330"/>
  <rect x="60" y="0" width="260" height="30" fill="#060a0d" stroke="#1a2330"/>
  <circle cx="300" cy="15" r="6" fill="#a3e635"/>
  <rect x="76" y="46" width="56" height="40" fill="#0a0e12" stroke="#1a2330"/>
  <rect x="142" y="46" width="56" height="40" fill="#0a0e12" stroke="#1a2330"/>
  <rect x="208" y="46" width="56" height="40" fill="#0a0e12" stroke="#1a2330"/>
  <rect x="76" y="100" width="222" height="80" fill="#0a0e12" stroke="#1a2330"/>
  <polyline points="86,160 116,140 146,150 176,120 206,130 236,100 266,110 286,90" fill="none" stroke="#7dd3fc" stroke-width="1.5"/>
  <polyline points="86,170 116,160 146,170 176,150 206,160 236,140 266,150 286,130" fill="none" stroke="#a3e635" stroke-width="1.5"/>
</svg>
